<svg xmlns="http://www.w3.org/2000/svg" viewBox="0 0 165.97 184.71"><defs><style>.cls-1{fill:#8dc21f;}.cls-2{fill:#754c24;}</style></defs><title>アセット 1</title><g id="レイヤー_2" data-name="レイヤー 2"><g id="logo"><g id="kazari"><path class="cls-1" d="M20.44,155.56a10.21,10.21,0,0,0-2.18.09,5,5,0,0,0-2.8,1.23,4,4,0,0,0-1.12,1.87,3.86,3.86,0,0,0-.15,1,12,12,0,0,0,3,.7,7.35,7.35,0,0,0,2.24-.16A4.65,4.65,0,0,0,22,158.67a5.86,5.86,0,0,0,1-1.93,5.38,5.38,0,0,0,.21-.89c-.53-.06-1-.15-1.47-.2S20.85,155.59,20.44,155.56Z"/><path class="cls-1" d="M15.27,150.1a4.46,4.46,0,0,0,.49-.69,14.79,14.79,0,0,0-4.33-1.88,4.87,4.87,0,0,0-2.87.16,3.91,3.91,0,0,0-1.61,1.21,3.5,3.5,0,0,0-.48.78c3.4,2.71,5.85,2.39,7.25,1.67A5.12,5.12,0,0,0,15.27,150.1Z"/><path class="cls-1" d="M8.09,142.31a4.66,4.66,0,0,0,1.74-.62,4,4,0,0,0,.63-.45,12.82,12.82,0,0,0-3.25-2.92,4.58,4.58,0,0,0-2.57-.68,3.69,3.69,0,0,0-1.77.59,3.26,3.26,0,0,0-.65.54,8.4,8.4,0,0,0,3.22,3.08A4.54,4.54,0,0,0,8.09,142.31Z"/><path class="cls-1" d="M22.32,153.64a5.25,5.25,0,0,0,1.13-1.54,6.58,6.58,0,0,0,.63-2.55,10.73,10.73,0,0,0-.46-3.45,5.34,5.34,0,0,0-.74.34,5.73,5.73,0,0,0-1.5,1.17,3.93,3.93,0,0,0-1,2.38,6.86,6.86,0,0,0,1.3,4.14A3.58,3.58,0,0,0,22.32,153.64Z"/><path class="cls-1" d="M14.93,147.57a3.59,3.59,0,0,0,.72-.24,4.62,4.62,0,0,0,1.44-1,5,5,0,0,0,1.17-2.06,8.37,8.37,0,0,0,.21-3.28,4.77,4.77,0,0,0-.78.1,4.88,4.88,0,0,0-1.66.64,3.32,3.32,0,0,0-1.42,1.87A6.38,6.38,0,0,0,14.93,147.57Z"/><path class="cls-1" d="M10.94,139.48a4.14,4.14,0,0,0,1.51-.56,4.08,4.08,0,0,0,1.45-1.58,5.89,5.89,0,0,0,.49-1.27,12.75,12.75,0,0,0,.29-1.56l-.2,0a3.38,3.38,0,0,0-.52,0,9.6,9.6,0,0,0-1.62.22,2.31,2.31,0,0,0-1.68,1.2,5.62,5.62,0,0,0-.43,3.64A3.48,3.48,0,0,0,10.94,139.48Z"/><path class="cls-1" d="M150.51,156.88a5,5,0,0,0-2.8-1.23,10.21,10.21,0,0,0-2.18-.09c-.4,0-.85,0-1.32.1s-.94.14-1.47.2a5.39,5.39,0,0,0,.21.89,5.86,5.86,0,0,0,1,1.93,4.65,4.65,0,0,0,2.61,1.63,7.35,7.35,0,0,0,2.24.16,12,12,0,0,0,3-.7,3.85,3.85,0,0,0-.15-1A4,4,0,0,0,150.51,156.88Z"/><path class="cls-1" d="M157.42,147.7a4.87,4.87,0,0,0-2.87-.16,14.79,14.79,0,0,0-4.33,1.88,4.5,4.5,0,0,0,.49.69,5.11,5.11,0,0,0,1.55,1.26c1.4.72,3.85,1,7.25-1.67a3.51,3.51,0,0,0-.48-.78A3.9,3.9,0,0,0,157.42,147.7Z"/><path class="cls-1" d="M163.1,138.22a3.68,3.68,0,0,0-1.77-.59,4.58,4.58,0,0,0-2.57.68,12.82,12.82,0,0,0-3.25,2.92,4,4,0,0,0,.63.45,4.65,4.65,0,0,0,1.74.62,4.54,4.54,0,0,0,2.66-.47,8.4,8.4,0,0,0,3.21-3.08A3.26,3.26,0,0,0,163.1,138.22Z"/><path class="cls-1" d="M142.52,152.11a5.25,5.25,0,0,0,1.13,1.54,3.59,3.59,0,0,0,.64.49,6.85,6.85,0,0,0,1.3-4.14,3.92,3.92,0,0,0-1-2.38,5.71,5.71,0,0,0-1.5-1.17,5.33,5.33,0,0,0-.74-.34,10.74,10.74,0,0,0-.46,3.45A6.6,6.6,0,0,0,142.52,152.11Z"/><path class="cls-1" d="M148.88,146.31a4.62,4.62,0,0,0,1.44,1,3.51,3.51,0,0,0,.72.24,6.38,6.38,0,0,0,.32-4,3.32,3.32,0,0,0-1.42-1.87,5.27,5.27,0,0,0-2.44-.73,8.35,8.35,0,0,0,.21,3.28A5,5,0,0,0,148.88,146.31Z"/><path class="cls-1" d="M152.07,137.34a4.09,4.09,0,0,0,1.45,1.58,4.15,4.15,0,0,0,1.51.56,3.48,3.48,0,0,0,.71,0,5.63,5.63,0,0,0-.43-3.64,2.31,2.31,0,0,0-1.68-1.2,9.71,9.71,0,0,0-1.62-.22,3.39,3.39,0,0,0-.52,0l-.2,0a12.94,12.94,0,0,0,.29,1.56A5.92,5.92,0,0,0,152.07,137.34Z"/><path class="cls-1" d="M138.43,161.44a10.39,10.39,0,0,0-2-1,23.19,23.19,0,0,0-2.67-.89,28.3,28.3,0,0,0,5.65-1.91,29.82,29.82,0,0,0,6.65-4.22,33.5,33.5,0,0,0,4.89-5.07,37,37,0,0,0,5.15-9c.46-1.14.76-2.05.95-2.68s.27-1,.27-1-.09.33-.29.95-.52,1.52-1,2.65a36.86,36.86,0,0,1-5.32,8.81,33.12,33.12,0,0,1-4.93,4.9,29.17,29.17,0,0,1-6.59,4,27.13,27.13,0,0,1-3.15,1.15c3.07-2.87,2.74-5.25,2.15-6.71a6.82,6.82,0,0,0-1.08-1.73,5.88,5.88,0,0,0-.58-.61,15.18,15.18,0,0,0-.84,1.8,12,12,0,0,0-.54,1.67,8.73,8.73,0,0,0-.21,2.92,6.23,6.23,0,0,0,.56,2,4,4,0,0,0,.4.68,28.23,28.23,0,0,1-8.74,1.11,10.05,10.05,0,0,0,1.11-.68,9.82,9.82,0,0,0,1-.84,6.71,6.71,0,0,0,1.34-1.74,5.68,5.68,0,0,0,.67-3.08,7.84,7.84,0,0,0-.47-2.17,6.45,6.45,0,0,0-.36-.83c-.26.28-.5.56-.73.84s-.46.53-.66.81a13.52,13.52,0,0,0-1.07,1.63,9.92,9.92,0,0,0-1.16,3,7.42,7.42,0,0,0-.12,2.28,5.18,5.18,0,0,0,.14.78,27.16,27.16,0,0,1-3.56-.38l-2.08-.32-1.05-.17-1.07-.11-.94-.1a21,21,0,0,0,2.47-1.36,11.37,11.37,0,0,0,2-1.53,7.25,7.25,0,0,0,1.23-1.56,5.5,5.5,0,0,0,.53-1.5,6.36,6.36,0,0,0,.15-1.32,4.79,4.79,0,0,0-.21-1.07,4.14,4.14,0,0,0-.44-1,11.15,11.15,0,0,0-4.7,3,6.61,6.61,0,0,0-1.57,3.16,7.18,7.18,0,0,0,0,2.41,6.2,6.2,0,0,0,.16.74l-.76,0c-.71,0-1.42-.1-2.14-.08a34.2,34.2,0,0,0-6.12.47c.4-.37-.66,0-.56.1-.57.11-1.13.22-1.69.36A32.4,32.4,0,0,0,99,161.87a38.72,38.72,0,0,0-5.95,4,49.79,49.79,0,0,0-7.47,7.51l-.73.93c-.33-3.53,1.37-9.95,1.88-11.2l.28-.47.17-.29.09-.08.14-.31q.48-.79,1-1.55a4,4,0,0,0,.39.46,5.4,5.4,0,0,0,1.38,1,6.67,6.67,0,0,0,2.29.7,8.62,8.62,0,0,0,1.45.08c.26,0,.51,0,.78-.05s.55,0,.83-.09a5.24,5.24,0,0,0-.36-.59A6.32,6.32,0,0,0,94,160.68a4.43,4.43,0,0,0-2.13-1,5,5,0,0,0-1.58,0,7.65,7.65,0,0,0-.93.22,7.73,7.73,0,0,0-.87.32,27.65,27.65,0,0,1,4.17-4.69,3.49,3.49,0,0,0,.25.55,4.89,4.89,0,0,0,1,1.23,6,6,0,0,0,1.85,1.13,7.53,7.53,0,0,0,1.24.36,9,9,0,0,0,1.44.19,4.6,4.6,0,0,0-.17-.62,5.51,5.51,0,0,0-.69-1.4c-.71-1-2-2.11-4.84-1.49.59-.52,1.19-1,1.8-1.45a25.3,25.3,0,0,1,4.53-2.63,29.24,29.24,0,0,1,4.4-1.56,34.9,34.9,0,0,1,6.9-1.11c.84,0,1.51-.06,2-.06h.69l-.69,0c-.45,0-1.12,0-2,0a34.89,34.89,0,0,0-7,.94A29.34,29.34,0,0,0,99,151.06a25.72,25.72,0,0,0-7.85,5.18,14.43,14.43,0,0,0,.49-2,7.65,7.65,0,0,0,.13-1.68,4.56,4.56,0,0,0-.67-2.38,3.76,3.76,0,0,0-1.27-1.22,3.69,3.69,0,0,0-.51-.25l-.21-.07a9,9,0,0,0-.77,2.08,6,6,0,0,0-.1,1.7,4.38,4.38,0,0,0,.93,2.32,5.51,5.51,0,0,0,1.32,1.2,4.91,4.91,0,0,0,.62.35,51.23,51.23,0,0,0-4.33,5.3l-.42.68-.62,1h0A25.12,25.12,0,0,0,83,170.54a25.12,25.12,0,0,0-2.78-7.31h0l-.62-1-.42-.68a51.23,51.23,0,0,0-4.33-5.3,4.83,4.83,0,0,0,.62-.35,5.52,5.52,0,0,0,1.32-1.2,4.38,4.38,0,0,0,.93-2.32,6,6,0,0,0-.1-1.7,9,9,0,0,0-.77-2.08l-.21.07a3.66,3.66,0,0,0-.51.25,3.76,3.76,0,0,0-1.27,1.22,4.58,4.58,0,0,0-.67,2.38,7.76,7.76,0,0,0,.13,1.68,14.4,14.4,0,0,0,.49,2A25.73,25.73,0,0,0,67,151.06a29.28,29.28,0,0,0-4.48-1.47,34.86,34.86,0,0,0-7-.94c-.85,0-1.51,0-2,0l-.69,0h.69c.45,0,1.11,0,2,.06a34.89,34.89,0,0,1,6.9,1.11,29.28,29.28,0,0,1,4.4,1.56A25.3,25.3,0,0,1,71.39,154q.92.67,1.8,1.45c-2.81-.62-4.13.51-4.84,1.49a5.56,5.56,0,0,0-.69,1.4,4.73,4.73,0,0,0-.17.62,9,9,0,0,0,1.44-.19,7.59,7.59,0,0,0,1.24-.36A6,6,0,0,0,72,157.31a4.9,4.9,0,0,0,1-1.23,3.41,3.41,0,0,0,.25-.55,27.63,27.63,0,0,1,4.17,4.69,7.82,7.82,0,0,0-1.8-.53,5,5,0,0,0-1.58,0,4.43,4.43,0,0,0-2.13,1,6.33,6.33,0,0,0-1.14,1.25,5.29,5.29,0,0,0-.36.59c.28,0,.56.07.83.09s.52,0,.78.05a8.62,8.62,0,0,0,1.45-.08,6.68,6.68,0,0,0,2.29-.7,5.41,5.41,0,0,0,1.38-1,4,4,0,0,0,.39-.46q.52.76,1,1.55l.14.31.09.08.17.29.28.47c.51,1.25,2.21,7.67,1.88,11.2l-.73-.93a49.78,49.78,0,0,0-7.47-7.51,38.77,38.77,0,0,0-5.95-4A32.41,32.41,0,0,0,59.5,159c-.56-.14-1.12-.25-1.69-.36.1-.15-.82-.35-.56-.1a34.21,34.21,0,0,0-6.12-.47c-.72,0-1.42,0-2.14.08l-.76,0a6.26,6.26,0,0,0,.16-.74,7.17,7.17,0,0,0,0-2.41,6.62,6.62,0,0,0-1.57-3.16,11.15,11.15,0,0,0-4.7-3,4.16,4.16,0,0,0-.44,1,4.75,4.75,0,0,0-.21,1.07,6.36,6.36,0,0,0,.15,1.32,5.51,5.51,0,0,0,.53,1.5,7.29,7.29,0,0,0,1.23,1.56,11.34,11.34,0,0,0,2,1.53,21,21,0,0,0,2.47,1.36l-.94.1-1.07.11-1.05.17-2.08.32a27.19,27.19,0,0,1-3.56.38,5.22,5.22,0,0,0,.14-.78,7.4,7.4,0,0,0-.12-2.28,9.9,9.9,0,0,0-1.16-3,13.47,13.47,0,0,0-1.07-1.63c-.21-.27-.43-.53-.66-.81s-.47-.57-.73-.84a6.54,6.54,0,0,0-.36.83,7.84,7.84,0,0,0-.47,2.17,5.68,5.68,0,0,0,.67,3.08,6.7,6.7,0,0,0,1.34,1.74,9.94,9.94,0,0,0,1,.84,10.07,10.07,0,0,0,1.11.68,28.23,28.23,0,0,1-8.74-1.11,4,4,0,0,0,.4-.68,6.25,6.25,0,0,0,.56-2,8.74,8.74,0,0,0-.21-2.92,12.07,12.07,0,0,0-.54-1.67,15.14,15.14,0,0,0-.84-1.8,5.88,5.88,0,0,0-.58.61,6.83,6.83,0,0,0-1.08,1.73c-.58,1.46-.92,3.83,2.15,6.71A27.16,27.16,0,0,1,26.8,157a29.18,29.18,0,0,1-6.59-4,33.07,33.07,0,0,1-4.93-4.9A36.85,36.85,0,0,1,10,139.36c-.48-1.13-.8-2-1-2.65s-.29-.95-.29-.95.08.33.27,1,.49,1.53.95,2.68a37,37,0,0,0,5.15,9,33.5,33.5,0,0,0,4.89,5.07,29.81,29.81,0,0,0,6.66,4.22,28.27,28.27,0,0,0,5.65,1.91,23.24,23.24,0,0,0-2.67.89,10.38,10.38,0,0,0-2,1,5.23,5.23,0,0,0-2.14,2.44,4.55,4.55,0,0,0-.23,2.4,5.15,5.15,0,0,0,.2.81,2.68,2.68,0,0,0,.12.3,11.18,11.18,0,0,0,3.13-.56,6.89,6.89,0,0,0,2-1.13,5.05,5.05,0,0,0,1.71-2.8,7.3,7.3,0,0,0,.13-2.39,6.77,6.77,0,0,0-.16-1,29.1,29.1,0,0,0,9.29.56l-.45.39-.57.49q-.55.49-1,1a12.85,12.85,0,0,0-1.47,1.86,5.87,5.87,0,0,0-1,3.4,5.49,5.49,0,0,0,.79,2.55,5.38,5.38,0,0,0,.75,1,10.15,10.15,0,0,0,1.46-.87,9.85,9.85,0,0,0,1.1-1A6.82,6.82,0,0,0,42.57,167a6.48,6.48,0,0,0,.46-3.56,9.18,9.18,0,0,0-.76-2.52,8.71,8.71,0,0,0-.44-.84l1.07-.14,2.07-.27,1-.15,1-.09,1-.09c.34,0,.69,0,1,0,.59,0,1.17-.05,1.76,0a7.91,7.91,0,0,0-3.08,4.07,7,7,0,0,0-.08,3.74,11.17,11.17,0,0,0,1,2.61,9.25,9.25,0,0,0,.59,1c.23-.35.44-.71.63-1.07s.36-.67.52-1a16.4,16.4,0,0,0,.8-2,12.64,12.64,0,0,0,.62-3.68,9.7,9.7,0,0,0-.34-2.73,7.16,7.16,0,0,0-.3-.87,32,32,0,0,1,8,1.07l.92.26a11.62,11.62,0,0,0-1.19.56,7.88,7.88,0,0,0-3,2.75,8.27,8.27,0,0,0-1.15,3.81,14.74,14.74,0,0,0,.11,2.83c0,.34.09.62.12.8l.06.29.8-.93.78-.93c.5-.61,1-1.24,1.41-1.85A15.48,15.48,0,0,0,60,164.42a9.61,9.61,0,0,0,.62-2.8,7,7,0,0,0,0-.86,30.83,30.83,0,0,1,5.6,2.45,36.28,36.28,0,0,1,5.55,3.9,45.29,45.29,0,0,1,5,4.94,20.21,20.21,0,0,1,2.52,9,3.67,3.67,0,0,0,1.8,3,3.38,3.38,0,0,0,3.88,0,3.67,3.67,0,0,0,1.8-3,20.21,20.21,0,0,1,2.52-9,45.31,45.31,0,0,1,5-4.94,36.26,36.26,0,0,1,5.55-3.9,30.85,30.85,0,0,1,5.6-2.45,6.93,6.93,0,0,0,0,.86,9.58,9.58,0,0,0,.62,2.8,15.44,15.44,0,0,0,1.92,3.49c.43.61.91,1.24,1.41,1.85l.78.93.8.93.06-.29c0-.19.08-.46.12-.8a14.71,14.71,0,0,0,.11-2.83A8.28,8.28,0,0,0,110,163.9a7.9,7.9,0,0,0-3-2.75,11.63,11.63,0,0,0-1.19-.56l.92-.26a32,32,0,0,1,8-1.07,7.21,7.21,0,0,0-.3.87,9.7,9.7,0,0,0-.34,2.73,12.62,12.62,0,0,0,.62,3.68,16.35,16.35,0,0,0,.8,2c.16.34.34.68.52,1s.41.72.63,1.07a9.42,9.42,0,0,0,.59-1,11.16,11.16,0,0,0,1-2.61,7,7,0,0,0-.08-3.74,7.91,7.91,0,0,0-3.08-4.07c.59,0,1.17,0,1.76,0,.35,0,.7,0,1,0l1,.09,1,.09,1,.15,2.07.27,1.07.14a8.44,8.44,0,0,0-.44.84,9.18,9.18,0,0,0-.76,2.52,6.48,6.48,0,0,0,.46,3.56,6.84,6.84,0,0,0,1.36,1.93,9.89,9.89,0,0,0,1.1,1,10.15,10.15,0,0,0,1.46.87,5.36,5.36,0,0,0,.75-1,5.48,5.48,0,0,0,.79-2.55,5.87,5.87,0,0,0-1-3.4,12.88,12.88,0,0,0-1.47-1.86q-.46-.49-1-1l-.57-.49-.45-.39a29.1,29.1,0,0,0,9.29-.56,6.8,6.8,0,0,0-.16,1,7.32,7.32,0,0,0,.13,2.39,5.05,5.05,0,0,0,1.71,2.8,6.89,6.89,0,0,0,2,1.13,11.16,11.16,0,0,0,3.13.56,2.86,2.86,0,0,0,.12-.3,5.18,5.18,0,0,0,.2-.81,4.55,4.55,0,0,0-.23-2.4A5.23,5.23,0,0,0,138.43,161.44Z"/><path class="cls-1" d="M96,151.75a4.26,4.26,0,0,0,.47.49c.21-.31.41-.58.58-.86s.32-.56.46-.81a6.66,6.66,0,0,0,.58-1.45,4.08,4.08,0,0,0,0-2.29,3.65,3.65,0,0,0-.82-1.43,3.13,3.13,0,0,0-.55-.48,8.3,8.3,0,0,0-1.2,1.62A5.69,5.69,0,0,0,95,148a4.14,4.14,0,0,0,.18,2.31A5,5,0,0,0,96,151.75Z"/><path class="cls-1" d="M102.3,149.15a3.82,3.82,0,0,0,.31.57,8.1,8.1,0,0,0,2.22-2.35,3.6,3.6,0,0,0,.51-2,3.54,3.54,0,0,0-.44-1.48,3.16,3.16,0,0,0-.39-.57c-2.31,1.48-2.7,3.19-2.6,4.39A4.66,4.66,0,0,0,102.3,149.15Z"/><path class="cls-1" d="M109.08,148.57a7,7,0,0,0,2.54-1.58,3.05,3.05,0,0,0,.75-3.14,3,3,0,0,0-.26-.6,5.19,5.19,0,0,0-2.48,1.55,3.47,3.47,0,0,0-.78,1.77,4.21,4.21,0,0,0,.06,1.41A3.43,3.43,0,0,0,109.08,148.57Z"/><path class="cls-1" d="M101,152.64a4.83,4.83,0,0,0-2.95-.71,3.16,3.16,0,0,0,.1.61,4.5,4.5,0,0,0,.59,1.34,5,5,0,0,0,1.39,1.4,6.88,6.88,0,0,0,2.35,1,4.11,4.11,0,0,0,0-.63,4.66,4.66,0,0,0-.28-1.44A3.22,3.22,0,0,0,101,152.64Z"/><path class="cls-1" d="M106.62,150.83a4.63,4.63,0,0,0-2.64-1.05,3.07,3.07,0,0,0,0,.58,4.08,4.08,0,0,0,.27,1.33,4,4,0,0,0,1,1.49,5.65,5.65,0,0,0,2.1,1.19,3.71,3.71,0,0,0,.15-.58,4,4,0,0,0,0-1.37A2.77,2.77,0,0,0,106.62,150.83Z"/><path class="cls-1" d="M110.25,148.86a2.85,2.85,0,0,0-.11.53,3.66,3.66,0,0,0,0,1.25,3.42,3.42,0,0,0,.73,1.48,4.28,4.28,0,0,0,.75.69,8.35,8.35,0,0,0,1,.62l.06-.14a2.78,2.78,0,0,0,.14-.38,7.42,7.42,0,0,0,.2-1.25,1.94,1.94,0,0,0-.46-1.54A4.18,4.18,0,0,0,110.25,148.86Z"/><path class="cls-1" d="M68.45,150.57c.14.25.28.53.46.81s.37.55.58.86a4.23,4.23,0,0,0,.47-.49,5,5,0,0,0,.83-1.42A4.14,4.14,0,0,0,71,148a5.69,5.69,0,0,0-.54-1.48,8.29,8.29,0,0,0-1.2-1.62,3.12,3.12,0,0,0-.55.48,3.65,3.65,0,0,0-.82,1.43,4.08,4.08,0,0,0,0,2.29A6.66,6.66,0,0,0,68.45,150.57Z"/><path class="cls-1" d="M63.36,149.72a3.87,3.87,0,0,0,.3-.57,4.66,4.66,0,0,0,.39-1.48c.11-1.21-.29-2.91-2.6-4.39a3.18,3.18,0,0,0-.39.57,3.56,3.56,0,0,0-.44,1.48,3.6,3.6,0,0,0,.5,2A8.1,8.1,0,0,0,63.36,149.72Z"/><path class="cls-1" d="M54.35,147a7,7,0,0,0,2.54,1.58,3.53,3.53,0,0,0,.17-.58,4.23,4.23,0,0,0,.06-1.41,3.47,3.47,0,0,0-.78-1.77,5.19,5.19,0,0,0-2.48-1.55,3,3,0,0,0-.26.6,3.05,3.05,0,0,0,.75,3.14Z"/><path class="cls-1" d="M67.27,153.88a4.51,4.51,0,0,0,.59-1.34,3.14,3.14,0,0,0,.1-.61,4.84,4.84,0,0,0-3,.71,3.22,3.22,0,0,0-1.21,1.54,4.66,4.66,0,0,0-.28,1.44,4.17,4.17,0,0,0,0,.63,6.88,6.88,0,0,0,2.35-1A5,5,0,0,0,67.27,153.88Z"/><path class="cls-1" d="M60.73,153.17A4,4,0,0,0,62,150.36a3,3,0,0,0,0-.58,4.63,4.63,0,0,0-2.64,1.05,2.77,2.77,0,0,0-.87,1.58,4,4,0,0,0,0,1.37,3.74,3.74,0,0,0,.15.58A5.65,5.65,0,0,0,60.73,153.17Z"/><path class="cls-1" d="M53.25,153.28l.06.14a8.37,8.37,0,0,0,1-.62,4.32,4.32,0,0,0,.75-.69,3.42,3.42,0,0,0,.73-1.48,3.68,3.68,0,0,0,0-1.25,2.88,2.88,0,0,0-.11-.53,4.18,4.18,0,0,0-2.35,1.25,1.94,1.94,0,0,0-.46,1.54,7.43,7.43,0,0,0,.2,1.25A2.71,2.71,0,0,0,53.25,153.28Z"/><path class="cls-1" d="M24.66,64.28a5.82,5.82,0,0,0-.74-.6c-.26.44-.53.82-.74,1.22s-.4.78-.58,1.13a8.56,8.56,0,0,0-.68,2,5,5,0,0,0,.21,3,4.7,4.7,0,0,0,1.35,1.79,4.46,4.46,0,0,0,.86.57,11,11,0,0,0,1.58-2.3,7,7,0,0,0,.63-2,5,5,0,0,0-.52-3A6.54,6.54,0,0,0,24.66,64.28Z"/><path class="cls-1" d="M15.81,68.44a5.12,5.12,0,0,0-.5-.72,11.47,11.47,0,0,0-3,3.34,4.48,4.48,0,0,0-.57,2.75,4.37,4.37,0,0,0,.76,1.92,4.11,4.11,0,0,0,.62.71c3.27-2.19,3.68-4.5,3.42-6.08A5.76,5.76,0,0,0,15.81,68.44Z"/><path class="cls-1" d="M6,69.85a10.55,10.55,0,0,0-3.59,2.29,4.11,4.11,0,0,0-1.17,2.34,3.82,3.82,0,0,0,.27,1.89,3.72,3.72,0,0,0,.42.77,7.71,7.71,0,0,0,3.54-2.25,4.39,4.39,0,0,0,1-2.41,5.08,5.08,0,0,0-.19-1.87A4.44,4.44,0,0,0,6,69.85Z"/><path class="cls-1" d="M15.53,61.77a4.31,4.31,0,0,0,1.89,1.91,7.44,7.44,0,0,0,4.34.6,3.82,3.82,0,0,0-.21-.79,5.76,5.76,0,0,0-1-1.7,7,7,0,0,0-2.14-1.69,10.58,10.58,0,0,0-3.47-1,5.07,5.07,0,0,0,0,.83A5.76,5.76,0,0,0,15.53,61.77Z"/><path class="cls-1" d="M9.39,66.64a7,7,0,0,0,3.92,1.14,3.69,3.69,0,0,0,0-.77,5,5,0,0,0-.51-1.73,5.38,5.38,0,0,0-1.6-1.88A8.46,8.46,0,0,0,8.07,62a4.66,4.66,0,0,0-.16.79A4.81,4.81,0,0,0,8,64.63,3.59,3.59,0,0,0,9.39,66.64Z"/><path class="cls-1" d="M4.28,69.55a3.52,3.52,0,0,0,.13-.71,4.45,4.45,0,0,0-.16-1.65,4.42,4.42,0,0,0-1.16-1.9A6.1,6.1,0,0,0,2,64.43a12.46,12.46,0,0,0-1.48-.74l-.08.19a3.35,3.35,0,0,0-.17.51A9,9,0,0,0,0,66.07a2.43,2.43,0,0,0,.77,2A6.18,6.18,0,0,0,4.28,69.55Z"/><path class="cls-1" d="M143.36,66c-.17-.35-.35-.74-.58-1.13s-.48-.78-.74-1.22a5.86,5.86,0,0,0-.74.6,6.55,6.55,0,0,0-1.36,1.77,5,5,0,0,0-.52,3,7.05,7.05,0,0,0,.63,2,11,11,0,0,0,1.58,2.3,4.45,4.45,0,0,0,.86-.57A4.7,4.7,0,0,0,143.84,71a5,5,0,0,0,.21-3A8.55,8.55,0,0,0,143.36,66Z"/><path class="cls-1" d="M150.66,67.72a5.11,5.11,0,0,0-.5.72,5.76,5.76,0,0,0-.71,1.92c-.27,1.58.15,3.89,3.42,6.08a4.11,4.11,0,0,0,.62-.71,4.37,4.37,0,0,0,.76-1.92,4.47,4.47,0,0,0-.57-2.75A11.49,11.49,0,0,0,150.66,67.72Z"/><path class="cls-1" d="M163.56,72.14A10.54,10.54,0,0,0,160,69.85a4.43,4.43,0,0,0-.29.75,5.09,5.09,0,0,0-.19,1.87,4.39,4.39,0,0,0,1,2.41A7.71,7.71,0,0,0,164,77.14a3.7,3.7,0,0,0,.42-.77,3.81,3.81,0,0,0,.27-1.89A4.11,4.11,0,0,0,163.56,72.14Z"/><path class="cls-1" d="M144.43,63.49a3.83,3.83,0,0,0-.21.79,7.44,7.44,0,0,0,4.34-.6,4.31,4.31,0,0,0,1.89-1.91A5.77,5.77,0,0,0,151,59.9a5.26,5.26,0,0,0,0-.83,10.59,10.59,0,0,0-3.47,1,7,7,0,0,0-2.14,1.69A5.76,5.76,0,0,0,144.43,63.49Z"/><path class="cls-1" d="M156.58,66.64a3.59,3.59,0,0,0,1.39-2,4.81,4.81,0,0,0,.09-1.82,4.62,4.62,0,0,0-.16-.79,8.46,8.46,0,0,0-3.12,1.38,5.38,5.38,0,0,0-1.6,1.88,5,5,0,0,0-.51,1.73,3.7,3.7,0,0,0,0,.77A7,7,0,0,0,156.58,66.64Z"/><path class="cls-1" d="M161.7,69.55a6.18,6.18,0,0,0,3.49-1.48,2.43,2.43,0,0,0,.77-2,9.09,9.09,0,0,0-.21-1.68,3.42,3.42,0,0,0-.17-.51l-.08-.19a12.42,12.42,0,0,0-1.48.74,6.1,6.1,0,0,0-1.12.86,4.42,4.42,0,0,0-1.16,1.9,4.48,4.48,0,0,0-.16,1.65A3.5,3.5,0,0,0,161.7,69.55Z"/><path class="cls-1" d="M161.93,69.76A51.12,51.12,0,0,1,152,67.68a42.24,42.24,0,0,1-6.24-2.54,35.48,35.48,0,0,1-6.25-4c-.84-.67-1.64-1.39-2.42-2.16,4,1.2,6-.14,7.11-1.36a7.08,7.08,0,0,0,1.14-1.77,5.77,5.77,0,0,0,.31-.81,14.25,14.25,0,0,0-2.08.09,11.8,11.8,0,0,0-1.81.32A9,9,0,0,0,139,56.67a6.67,6.67,0,0,0-1.57,1.5,4.4,4.4,0,0,0-.43.69,35.82,35.82,0,0,1-5.36-6.78,11,11,0,0,0,1.2.54,11.19,11.19,0,0,0,1.3.42,7.55,7.55,0,0,0,2.25.21,6.49,6.49,0,0,0,3.15-1,8.57,8.57,0,0,0,1.77-1.51,6.68,6.68,0,0,0,.59-.73c-.39-.09-.78-.16-1.17-.22s-.74-.13-1.1-.17a13.37,13.37,0,0,0-2.07-.09,10.16,10.16,0,0,0-3.34.62,7.76,7.76,0,0,0-2.09,1.16,5.61,5.61,0,0,0-.61.56,35.18,35.18,0,0,1-1.68-3.15l-1-1.88-.49-1-.57-.93-.5-.81A29.08,29.08,0,0,0,130,45.3a14.19,14.19,0,0,0,2.56.75,8.88,8.88,0,0,0,2.13.15,6.55,6.55,0,0,0,1.67-.38,7.28,7.28,0,0,0,1.3-.58,5.05,5.05,0,0,0,.87-.76,4.09,4.09,0,0,0,.64-.91,11.9,11.9,0,0,0-5.64-2.39,7.33,7.33,0,0,0-3.83.55,7.5,7.5,0,0,0-2.13,1.42,6.48,6.48,0,0,0-.54.58l-.45-.64a21.4,21.4,0,0,0-1.34-1.74,26.81,26.81,0,0,0-4.69-4.42c.4,0-.44-.53-.5-.36-.51-.36-1-.7-1.55-1a28.78,28.78,0,0,0-8.08-3.3,33.55,33.55,0,0,0-6-.86,32.84,32.84,0,0,0,4.12-2c1.33,0,7-.22,6.05-5.54l0,0c.4-.09,5.11-1.12,2.39-5.83a13.28,13.28,0,0,1,5.36-3.39c2.14-.71,4-.61,5.19.27s1.72,2.27,1.83,4.33a1.5,1.5,0,0,0-1.39-.31c-1.77.46-2.54,2.92-2.16,4.53.75,3.16,5.09,3.23,7.39,2.17,4.88-2.26,6.64-8.45,4.84-13.33v-.34c0-.38,0-.74,0-1.11s-.08-.74-.14-1.1-.14-.73-.23-1.1a9.19,9.19,0,0,0-.35-1.07c-.06-.18-.15-.35-.22-.52s-.18-.34-.27-.51-.21-.33-.32-.49a4.43,4.43,0,0,0-.38-.45,2.46,2.46,0,0,0-.5-.4,1.47,1.47,0,0,0-.67-.21,1.12,1.12,0,0,0-.69.21l-.14.12c0-.16-.08-.33-.12-.49a9.38,9.38,0,0,0-.29-.89,7.1,7.1,0,0,0-.9-1.71,2.72,2.72,0,0,0-.81-.74l-.15-.08-.11,0a1.34,1.34,0,0,0-.35-.08,1.25,1.25,0,0,0-.7.14,1.68,1.68,0,0,0-.73.92,2.87,2.87,0,0,0-.09.35c-.14-.23-.3-.44-.46-.66a6.92,6.92,0,0,0-1-1.08A4,4,0,0,0,127,.12a2.37,2.37,0,0,0-1.74.1,2.07,2.07,0,0,0-.73.56,4.59,4.59,0,0,0-.47.65,5.69,5.69,0,0,0-.59,1.42,4.87,4.87,0,0,0-.15.75,4.61,4.61,0,0,0,0,.77,4,4,0,0,0,.1.76,2.42,2.42,0,0,0,.08.28,19.74,19.74,0,0,0-7.28,3.37A12.68,12.68,0,0,0,106.47.9c-3.33-.57-8.2.11-10.59,2.9-3,4.36,3.37,4.55,2.33,1.12-.63-2,2.63-2.7,3.81-2.89a11.19,11.19,0,0,1,12.42,7.21c.09.26.17.53.24.81-.42.39-.83.79-1.21,1.21-4.84,5.26-8.09,11.93-10.25,18.53-1.46.64-3,1.21-4.5,1.73a41.87,41.87,0,0,0-5.07.78,18.82,18.82,0,0,0,4.4-4.17c1.3-.6,5.51-2.78,3.24-5.5,0,0,4.11-5.95-.13-5.54,0,0,0-6.69-2.87-3.61l0,.06c-3.88-3.1-10.13-2.72-12.83,2.14a6.15,6.15,0,0,0,.67,7.15A6.79,6.79,0,0,0,89.33,25c1.49.24,2.3-.08,2.63-.61a3.75,3.75,0,0,1,.1,2.17c-.61,2.55-3.51,4.95-5.63,6.41a26.56,26.56,0,0,1-3.45.72A26.55,26.55,0,0,1,79.54,33c-2.12-1.46-5-3.85-5.63-6.4a3.76,3.76,0,0,1,.1-2.17c.33.53,1.13.84,2.62.61a6.79,6.79,0,0,0,3.18-2.2,6.15,6.15,0,0,0,.67-7.15c-2.7-4.86-8.94-5.24-12.83-2.14l0-.06c-2.88-3.09-2.87,3.61-2.87,3.61-4.23-.4-.1,5.54-.13,5.54-2.27,2.72,1.94,4.9,3.24,5.5a18.83,18.83,0,0,0,4.39,4.17,41.82,41.82,0,0,0-5.07-.78c-1.53-.52-3-1.09-4.5-1.73-2.16-6.61-5.41-13.27-10.25-18.53-.38-.42-.78-.82-1.21-1.21.07-.27.15-.54.24-.81A11.19,11.19,0,0,1,64,2c1.18.19,4.44.91,3.82,2.89-1,3.43,5.32,3.24,2.33-1.12C67.7,1,62.84.33,59.5.9a12.68,12.68,0,0,0-9.77,7.87A19.72,19.72,0,0,0,42.45,5.4a2.39,2.39,0,0,0,.07-.28,4,4,0,0,0,.1-.76,4.76,4.76,0,0,0,0-.77,5,5,0,0,0-.15-.75,5.69,5.69,0,0,0-.6-1.42,4.66,4.66,0,0,0-.47-.65,2.08,2.08,0,0,0-.73-.56,2.37,2.37,0,0,0-1.74-.1,4,4,0,0,0-1.37.79,6.91,6.91,0,0,0-1,1.08c-.16.22-.31.43-.46.66A2.74,2.74,0,0,0,36,2.29a1.69,1.69,0,0,0-.73-.92,1.25,1.25,0,0,0-.7-.14,1.35,1.35,0,0,0-.35.08l-.11,0-.15.08a2.71,2.71,0,0,0-.81.74,7.08,7.08,0,0,0-.9,1.71c-.11.29-.21.59-.29.89s-.09.32-.12.49l-.14-.12A1.13,1.13,0,0,0,31,4.93a1.47,1.47,0,0,0-.67.21,2.48,2.48,0,0,0-.5.4,4.6,4.6,0,0,0-.38.45c-.11.16-.22.32-.32.49s-.19.34-.27.51-.16.35-.22.52a9.23,9.23,0,0,0-.35,1.07c-.1.36-.17.73-.23,1.1a10.87,10.87,0,0,0-.14,1.1,10.66,10.66,0,0,0,0,1.11v.34c-1.8,4.88,0,11.07,4.84,13.33,2.3,1.06,6.64,1,7.39-2.17.38-1.61-.39-4.07-2.16-4.53a1.5,1.5,0,0,0-1.39.31c.11-2.06.72-3.52,1.83-4.33s3.05-1,5.19-.27A13.28,13.28,0,0,1,48.92,18c-2.72,4.7,2,5.73,2.39,5.83l0,0c-.94,5.32,4.72,5.54,6.05,5.54a32.85,32.85,0,0,0,4.12,2,33.55,33.55,0,0,0-6,.86,28.78,28.78,0,0,0-8.08,3.3c-.53.32-1,.66-1.55,1-.05-.17-.89.39-.5.36a26.83,26.83,0,0,0-4.69,4.42,21.55,21.55,0,0,0-1.34,1.74l-.45.64a6.47,6.47,0,0,0-.54-.58,7.5,7.5,0,0,0-2.13-1.42,7.33,7.33,0,0,0-3.83-.55,11.9,11.9,0,0,0-5.64,2.39,4.09,4.09,0,0,0,.64.91,5,5,0,0,0,.87.76,7.31,7.31,0,0,0,1.3.58,6.55,6.55,0,0,0,1.67.38,8.88,8.88,0,0,0,2.13-.15,14.17,14.17,0,0,0,2.56-.75,29.11,29.11,0,0,0,2.73-1.19l-.5.81-.57.93-.49,1-1,1.88a34.75,34.75,0,0,1-1.68,3.15,5.58,5.58,0,0,0-.61-.56,7.77,7.77,0,0,0-2.09-1.16,10.17,10.17,0,0,0-3.34-.62,13.37,13.37,0,0,0-2.07.09c-.36,0-.72.11-1.1.17s-.78.13-1.17.22a6.82,6.82,0,0,0,.59.73,8.59,8.59,0,0,0,1.77,1.51,6.49,6.49,0,0,0,3.15,1A7.55,7.55,0,0,0,31.86,53a11.66,11.66,0,0,0,2.49-1A35.8,35.8,0,0,1,29,58.86a4.41,4.41,0,0,0-.43-.69A6.68,6.68,0,0,0,27,56.67a9,9,0,0,0-2.78-1.25,11.79,11.79,0,0,0-1.81-.32A14.25,14.25,0,0,0,20.33,55a5.8,5.8,0,0,0,.31.81,7.1,7.1,0,0,0,1.14,1.77c1.12,1.22,3.15,2.56,7.11,1.36-.78.76-1.59,1.49-2.42,2.16a35.5,35.5,0,0,1-6.25,4A42.22,42.22,0,0,1,14,67.68,51.1,51.1,0,0,1,4,69.76c-1.22.13-2.19.19-2.84.22l-1,0h1C1.86,70,2.82,70,4,69.85a51.27,51.27,0,0,0,10-1.87,42.68,42.68,0,0,0,6.36-2.43,36.22,36.22,0,0,0,6.46-4,34.47,34.47,0,0,0,4.26-3.88,18.35,18.35,0,0,0-.44,2.72,9.5,9.5,0,0,0,0,2.24A5.66,5.66,0,0,0,32,65.72a5.27,5.27,0,0,0,2,1.44,5.61,5.61,0,0,0,.78.26l.31.06a11,11,0,0,0,.83-2.86,7.16,7.16,0,0,0-.08-2.26,5.59,5.59,0,0,0-1.65-2.93A7.8,7.8,0,0,0,32.14,58a7,7,0,0,0-.94-.37,37.35,37.35,0,0,0,5.36-7.41c0,.2.05.4.09.59s.07.51.11.75q.12.73.3,1.38a12.74,12.74,0,0,0,.82,2.26A6.64,6.64,0,0,0,40.28,58a6.17,6.17,0,0,0,2.56.89,5.55,5.55,0,0,0,1.23,0,10.43,10.43,0,0,0,0-1.65,10.25,10.25,0,0,0-.21-1.43A7.25,7.25,0,0,0,43,53.56,7,7,0,0,0,40.28,51a9.5,9.5,0,0,0-2.61-.88,9,9,0,0,0-1-.13q.26-.47.5-1l1-1.84.5-.92.57-.89.57-.88c.18-.3.42-.57.63-.85.37-.47.72-1,1.12-1.41A7.52,7.52,0,0,0,43,47.24a8.12,8.12,0,0,0,3.07,2.42,13.74,13.74,0,0,0,2.75.93A11.3,11.3,0,0,0,50,50.8c-.14-.39-.3-.78-.47-1.16s-.32-.71-.5-1.05a17.13,17.13,0,0,0-1.15-1.92,13.14,13.14,0,0,0-2.63-2.85,10.24,10.24,0,0,0-2.52-1.48,7.85,7.85,0,0,0-.94-.31,25.63,25.63,0,0,1,6.49-5.34l.9-.49a9.71,9.71,0,0,0-.43,1.25A6.51,6.51,0,0,0,48.52,39a6.85,6.85,0,0,0,.34,2.53,8.72,8.72,0,0,0,2.29,3.4,18.07,18.07,0,0,0,2.32,1.85l.71.46.26.16-.2-1.2L54,45c-.14-.77-.3-1.54-.48-2.27a15.67,15.67,0,0,0-1.4-3.78,9.72,9.72,0,0,0-1.79-2.39,7.3,7.3,0,0,0-.7-.59A27.52,27.52,0,0,1,56,33.74,32.52,32.52,0,0,1,63.37,33c1.24,0,2.42.1,3.53.23.83.23,1.66.45,2.5.65s2,.44,3,.64a22.17,22.17,0,0,1,6.73,5.31A4.57,4.57,0,0,0,83,41.42a4.57,4.57,0,0,0,3.89-1.57,22.17,22.17,0,0,1,6.73-5.31c1-.19,2-.4,3-.63s1.68-.42,2.51-.66c1.11-.12,2.28-.2,3.53-.23a32.53,32.53,0,0,1,7.41.71,27.51,27.51,0,0,1,6.27,2.21,7.28,7.28,0,0,0-.7.59,9.74,9.74,0,0,0-1.79,2.39,15.68,15.68,0,0,0-1.4,3.78c-.18.73-.35,1.5-.49,2.27l-.21,1.19-.2,1.2.26-.16.71-.46a18.11,18.11,0,0,0,2.32-1.85,8.71,8.71,0,0,0,2.29-3.4,6.84,6.84,0,0,0,.34-2.53,6.53,6.53,0,0,0-.25-1.52,9.69,9.69,0,0,0-.43-1.25l.9.49a25.65,25.65,0,0,1,6.5,5.34,7.8,7.8,0,0,0-.94.31,10.27,10.27,0,0,0-2.52,1.48,13.15,13.15,0,0,0-2.63,2.85,17.23,17.23,0,0,0-1.15,1.92c-.18.34-.34.69-.49,1.05s-.33.77-.47,1.16a11.27,11.27,0,0,0,1.16-.21,13.75,13.75,0,0,0,2.75-.93,8.12,8.12,0,0,0,3.07-2.42,7.53,7.53,0,0,0,1.47-4.94c.4.45.75.94,1.12,1.41.21.28.44.55.63.85l.57.88.57.89.5.92,1,1.84c.16.32.33.64.5,1a8.93,8.93,0,0,0-1,.13,9.5,9.5,0,0,0-2.61.88,7,7,0,0,0-2.75,2.52,7.28,7.28,0,0,0-.86,2.22,10.1,10.1,0,0,0-.21,1.43,10.45,10.45,0,0,0,0,1.65,5.54,5.54,0,0,0,1.23,0,6.17,6.17,0,0,0,2.56-.89,6.64,6.64,0,0,0,2.41-2.74,12.76,12.76,0,0,0,.82-2.26q.18-.65.3-1.38c0-.24.08-.49.11-.75s.06-.39.09-.59a37.34,37.34,0,0,0,5.36,7.41,7,7,0,0,0-.94.37,7.79,7.79,0,0,0-2,1.39,5.59,5.59,0,0,0-1.65,2.93,7.16,7.16,0,0,0-.08,2.26,11,11,0,0,0,.83,2.86l.31-.06a5.58,5.58,0,0,0,.78-.26,5.27,5.27,0,0,0,2-1.44,5.66,5.66,0,0,0,1.26-3.06,9.52,9.52,0,0,0,0-2.24,18.29,18.29,0,0,0-.44-2.72,34.46,34.46,0,0,0,4.26,3.88,36.22,36.22,0,0,0,6.46,4A42.7,42.7,0,0,0,151.89,68a51.3,51.3,0,0,0,10,1.87c1.23.1,2.19.14,2.85.16h1l-1,0C164.12,70,163.15,69.89,161.93,69.76ZM124.11,5.06a6.1,6.1,0,0,1,.07-.65c0-.22.08-.43.13-.64s.12-.41.19-.62A6.64,6.64,0,0,1,125.05,2a3.63,3.63,0,0,1,.35-.5,1,1,0,0,1,.37-.3,1.44,1.44,0,0,1,1-.09,3.56,3.56,0,0,1,1.1.52,11.21,11.21,0,0,1,2,1.82l.39.44V3.38a7.34,7.34,0,0,1,.43-.73,1.14,1.14,0,0,1,.45-.43.37.37,0,0,1,.18,0l.1,0,.1,0,.05,0a1.9,1.9,0,0,1,.53.48A8.87,8.87,0,0,1,133,4.21c.28.52.55,1.07.8,1.61h0l0,.37.33-.3a.83.83,0,0,1,.72-.27,1.37,1.37,0,0,1,.66.46,4.37,4.37,0,0,1,.31.38c.09.14.19.27.28.42s.17.29.24.45.15.31.22.47a10,10,0,0,1,.36,1c.11.33.2.68.29,1s.14.71.2,1.06a9.82,9.82,0,0,0-.77-1.21c-3.16-4.19-7.95-5.29-12.61-4.4C124.1,5.2,124.1,5.13,124.11,5.06Zm2.43,1.67c5.8.1,11,4.66,10.38,10.6a10,10,0,0,1-4.06,6.81,4.72,4.72,0,0,1-5.29,0,3.78,3.78,0,0,1-.29-.37,3.38,3.38,0,0,1-.22-.39,2.56,2.56,0,0,1-.11-1.08,2.94,2.94,0,0,1,.61-1.6,1.46,1.46,0,0,1,.4-.25.77.77,0,0,1,.23,0,.86.86,0,0,1,.76,1,1.1,1.1,0,0,0,1-1.16.77.77,0,0,0,.06-.28c0-2.65-.69-4.5-2.08-5.52s-3.37-1.12-5.68-.35a14.35,14.35,0,0,0-4.57,2.58c1.08-1.72,2.55-5-.91-6.21v-.05A15.18,15.18,0,0,1,126.54,6.73ZM28.69,9.82c.09-.35.18-.69.29-1a10.08,10.08,0,0,1,.36-1c.06-.16.14-.32.21-.47s.16-.3.24-.45.19-.28.28-.42a4.34,4.34,0,0,1,.31-.38,1.38,1.38,0,0,1,.66-.46.83.83,0,0,1,.72.27l.34.3,0-.37h0c.25-.54.52-1.09.8-1.61a8.8,8.8,0,0,1,.92-1.45,1.89,1.89,0,0,1,.53-.48l.05,0,.1,0,.1,0a.37.37,0,0,1,.18,0,1.14,1.14,0,0,1,.45.43,7.22,7.22,0,0,1,.43.73h0V3.9l.4-.44a11.22,11.22,0,0,1,2-1.82,3.56,3.56,0,0,1,1.1-.52,1.44,1.44,0,0,1,1,.09,1,1,0,0,1,.37.3,3.68,3.68,0,0,1,.35.5,6.72,6.72,0,0,1,.55,1.16c.07.2.13.41.19.62s.1.42.13.64a6.1,6.1,0,0,1,.07.65c0,.07,0,.15,0,.22-4.66-.89-9.45.21-12.61,4.4a9.83,9.83,0,0,0-.77,1.21C28.55,10.53,28.61,10.17,28.69,9.82Zm20.52.6c-3.47,1.23-2,4.49-.91,6.21a14.34,14.34,0,0,0-4.57-2.58c-2.31-.76-4.33-.64-5.68.35S36,17.29,36,19.93a.77.77,0,0,0,.06.28,1.1,1.1,0,0,0,1,1.16.87.87,0,0,1,.77-1,.77.77,0,0,1,.23,0,1.48,1.48,0,0,1,.4.25,2.94,2.94,0,0,1,.6,1.6,2.55,2.55,0,0,1-.11,1.09,3.42,3.42,0,0,1-.22.38,3.65,3.65,0,0,1-.29.37,4.72,4.72,0,0,1-5.29,0,10,10,0,0,1-4.06-6.81c-.67-5.94,4.58-10.5,10.38-10.6a15.18,15.18,0,0,1,9.79,3.64Zm56.1,16.27A66.33,66.33,0,0,1,110,18.17a35.21,35.21,0,0,1,5.06-6.3,17.46,17.46,0,0,1-1.42,9.41c-1.74,3.6-5,5.88-8.27,7.53l-.88.42C104.65,28.6,104.91,27.75,105.31,26.7Zm-16.2-5.3h0c-2.34,0-3.38-1.54-2.69-3.87,1.66-5.62,10-5.68,12.13-.69s-2,10.46-5.75,13.17a19,19,0,0,1-2.2,1.34,17.57,17.57,0,0,0,3.07-3.19,14.17,14.17,0,0,0,2.38-4.71,8.57,8.57,0,0,0,.32-2.73,4.34,4.34,0,0,0-.93-2.58,3.23,3.23,0,0,0-.5-.48,3.52,3.52,0,0,0-.59-.36l-.27-.12c-.14-.05-.21-.06-.32-.1l-.6-.16a3.52,3.52,0,0,0-2.34.32,3.56,3.56,0,0,0-1.36,1.48,6,6,0,0,0-.49,1.4,7.31,7.31,0,0,0-.14.93c0,.22,0,.34,0,.34Zm3.48,5.32a4.3,4.3,0,0,0-.5-3.29,2.71,2.71,0,0,0-2.67-2.07c0-.05,0-.13,0-.23a8.48,8.48,0,0,1,.18-.84,6.83,6.83,0,0,1,.48-1.21,2.87,2.87,0,0,1,1.08-1.13A2.72,2.72,0,0,1,93,17.69l.52.14.24.07L94,18a1.13,1.13,0,0,1,.23.12,1.81,1.81,0,0,1,.21.13,2.45,2.45,0,0,1,.39.36,3.64,3.64,0,0,1,.82,2.14,8,8,0,0,1-.23,2.52,14.39,14.39,0,0,1-2.14,4.62,18.29,18.29,0,0,1-3,3.35l-.63.53c-.53.24-1.06.47-1.6.67C90,31,92.06,28.92,92.59,26.71ZM73.87,23.42a4.29,4.29,0,0,0-.5,3.29c.53,2.21,2.57,4.24,4.48,5.74-.54-.2-1.08-.42-1.6-.67l-.63-.53a18.32,18.32,0,0,1-3-3.35A14.34,14.34,0,0,1,70.5,23.3a8,8,0,0,1-.23-2.52,3.63,3.63,0,0,1,.82-2.14,2.44,2.44,0,0,1,.39-.36,1.7,1.7,0,0,1,.21-.13,1.11,1.11,0,0,1,.23-.12l.27-.11.24-.07.52-.14a2.72,2.72,0,0,1,1.81.24,2.87,2.87,0,0,1,1.08,1.13,6.74,6.74,0,0,1,.48,1.21,8.47,8.47,0,0,1,.18.84c0,.11,0,.18,0,.23A2.71,2.71,0,0,0,73.87,23.42Zm-6.46-6.58c2.16-5,10.47-4.93,12.13.69.69,2.33-.35,3.89-2.69,3.87h0l.31,0s0-.12,0-.34a7.29,7.29,0,0,0-.14-.93,6,6,0,0,0-.49-1.4,3.56,3.56,0,0,0-1.36-1.48,3.52,3.52,0,0,0-2.34-.32l-.6.16c-.11,0-.18,0-.32.1l-.27.12a3.52,3.52,0,0,0-.59.36,3.23,3.23,0,0,0-.5.48,4.35,4.35,0,0,0-.93,2.58,8.62,8.62,0,0,0,.32,2.73,14.18,14.18,0,0,0,2.38,4.71,17.59,17.59,0,0,0,3.07,3.19A19,19,0,0,1,73.16,30C69.39,27.31,65.28,21.73,67.41,16.84Zm-6.79,12c-3.3-1.65-6.53-3.93-8.27-7.53a17.47,17.47,0,0,1-1.42-9.41A35.25,35.25,0,0,1,56,18.17a66.41,66.41,0,0,1,4.67,8.53c.39,1.06.66,1.9.84,2.53Z"/><g id="teapot"><path class="cls-2" d="M128.32,83.83c-1.23-3.36-3.78-7.84-6.87-9.84-2.15-1.4-4-1-6.18-.08-2.86,1.19-4,3.13-4.15,6.18-1.31-.63-1.36.21-1.1,1.26a4.15,4.15,0,0,1-.2,3.05c-.75,1.59-2.06,1.75-3.47,2,.48-1.84.86-3.64-.61-4.87s-3.66-1.13-5.5-1.24c-2.86-.17-5.45-2.48-7.09-4.83s-3.67-5.69-6.44-7.13a3.29,3.29,0,0,0,.58-1.12,3.24,3.24,0,0,1,.51-1.3,12.51,12.51,0,0,1,1.15-1.3c.69-.75-.73-1.1-1.23-.63a6.75,6.75,0,0,0-1.19-4.22c-.28-.38-.77-1-1.29-.91-.19,0-.39.3-.56.3s-.21-.2-.4-.34C83,57.92,82,60.22,81.75,61.11a12.38,12.38,0,0,0-.31,2.76,1,1,0,0,0-.95.07c-.44.31-.33.45,0,.74,1,.85,1,2.07,1.65,3.1l.09.13c-3.41,1-5.62,4.86-7.52,7.58-1.64,2.35-4.23,4.66-7.09,4.83-1.84.11-4,0-5.5,1.24-2.5,2.1.32,5.83,0,8.62A20.62,20.62,0,0,1,59,98a9.53,9.53,0,0,1-6.89-5C50.24,89.61,49.18,85.6,47,82.36c-.89-1.3-2.81-3.81-4.64-3.39a23.58,23.58,0,0,1-2.7.68A4.07,4.07,0,0,0,37,81c-1.65,2,2.7,2.23,3.8,3.36,2.79,2.87,3.92,7.35,4.3,11.25.41,4.21.88,8.23,2.59,12.12a12.2,12.2,0,0,0,6.12,6.16c1,2.21,3.44,3.81,5.49,4.82,1.36.67,1.2,1.19,1.8,2.46.94,2,2.82,2.94,4.77,3.66,0,0-1.55.71-1.73.81-.64.36-1.3.95-1.1,1.75s1.32,1.15,1.85,1.72c.83.88,1.07,1.41,2.28,1.81a14.37,14.37,0,0,0,3.26.65c.9.09,1.9,0,2.81.11a27.7,27.7,0,0,1,2.7.79,13.79,13.79,0,0,0,4,0,36.21,36.21,0,0,0,3.67,0l.31,0,.31,0a36.21,36.21,0,0,0,3.67,0,13.79,13.79,0,0,0,4,0,27.79,27.79,0,0,1,2.7-.79c.92-.12,1.91,0,2.81-.11a14.37,14.37,0,0,0,3.26-.65c1.21-.4,1.45-.93,2.28-1.81.53-.56,1.66-.92,1.85-1.72s-.47-1.39-1.1-1.75c-.18-.1-1.72-.81-1.73-.81,1.95-.72,3.83-1.66,4.77-3.66.6-1.27.44-1.79,1.8-2.46,2.57-1.27,5.8-3.44,6-6.62a12.26,12.26,0,0,0-.17-2.7c.83-.75,1.13-2.16,1.74-3.06a7.49,7.49,0,0,1,3.15-2.77c.8-.37,6.53-1.17,4.54-2.63,1.37-.92,3.06-2,3.87-3.48A18.12,18.12,0,0,0,128.32,83.83ZM106,83.27a4.42,4.42,0,0,1-.71.19c-.58.11-1.39.2-2.35.29-1.93.17-4.5.3-7.06.4-5.13.2-10.25.26-10.27.26-14.66-.44-20-1.06-21.8-1.58-.59-.2-.93-.27-1-.78s.34-.49.48-.58a2.57,2.57,0,0,1,.34-.12h0a.34.34,0,0,1,.41.25.35.35,0,0,1-.25.42l-.09,0,.31.1a21,21,0,0,0,3.09.52c3.16.37,8.78.74,18.53,1,0,0,10.82-.14,16.71-.62a26.88,26.88,0,0,0,3-.35l-.18,0a.35.35,0,0,1,.15-.68c.64.22,1,.1,1.2.73C106.4,83.15,106.16,83.18,106,83.27Zm17.81,13.26A4.63,4.63,0,0,1,120.59,99c-.89.08-2.68-.48-3.3.42-.8,1.17,1.06,1.79-.67,2.38-1.09.37-2.19.19-3.12.93a3.77,3.77,0,0,0-1.07,1.32c-1.8-3.42-4.28-6.62-5.69-10.21a15,15,0,0,1,.74-1.49c.86-1.34,2.35-2.11,3.2-3.41,1-1.47.57-2.82,2.3-3.72,1-.55,2.83-1,2.58-2.52-.19-1.14-1.58-1.65-1.27-2.92.22-.91,1.56-1.6,2.36-2,6.44-2.8,8.4,8.89,8.55,12.9A11.19,11.19,0,0,1,123.82,96.53Z"/></g></g></g></g></svg>